<svg width="20" height="18" viewBox="0 0 20 18" fill="none" xmlns="http://www.w3.org/2000/svg">
<path d="M17.1016 2.53516C19.7383 4.75 19.3516 8.37109 17.4883 10.3047L11.3008 16.5977C10.9492 16.9492 10.4922 17.1602 10 17.1602C9.47266 17.1602 9.01562 16.9492 8.66406 16.5977L2.51172 10.3047C0.613281 8.37109 0.226562 4.75 2.86328 2.53516C4.90234 0.8125 8.03125 1.05859 10 3.0625C11.9336 1.05859 15.0625 0.8125 17.1016 2.53516ZM16.2578 9.10938C17.5586 7.80859 17.8047 5.34766 16.0117 3.80078C14.6406 2.67578 12.5312 2.85156 11.2305 4.1875L10 5.45312L8.76953 4.1875C7.43359 2.85156 5.32422 2.67578 3.95312 3.83594C2.16016 5.34766 2.40625 7.80859 3.70703 9.10938L9.85938 15.4023C9.96484 15.4727 10.0352 15.4727 10.1055 15.4023L16.2578 9.10938Z" fill="#7C7C7C"/>
</svg>
