<svg width="14" height="20" viewBox="0 0 14 20" fill="none" xmlns="http://www.w3.org/2000/svg">
<path d="M13.7812 9.75C13.7812 13.4961 10.7188 16.5312 7 16.5312C3.25391 16.5312 0.21875 13.4961 0.21875 9.75C0.21875 6.03125 3.25391 2.96875 7 2.96875C10.7188 2.96875 13.7812 6.03125 13.7812 9.75ZM6.20703 13.3594L11.2383 8.32812C11.4023 8.16406 11.4023 7.86328 11.2383 7.69922L10.6094 7.09766C10.4453 6.90625 10.1719 6.90625 10.0078 7.09766L5.90625 11.1992L3.96484 9.28516C3.80078 9.09375 3.52734 9.09375 3.36328 9.28516L2.73438 9.88672C2.57031 10.0508 2.57031 10.3516 2.73438 10.5156L5.57812 13.3594C5.74219 13.5234 6.04297 13.5234 6.20703 13.3594Z" fill="#CE0000"/>
</svg>