<svg width="14" height="20" viewBox="0 0 14 20" fill="none" xmlns="http://www.w3.org/2000/svg">
<path d="M7 2.96875C3.25391 2.96875 0.21875 6.00391 0.21875 9.75C0.21875 13.4961 3.25391 16.5312 7 16.5312C10.7461 16.5312 13.7812 13.4961 13.7812 9.75C13.7812 6.00391 10.7461 2.96875 7 2.96875ZM9.51562 11.5273L8.96875 12.2109C8.88672 12.3203 8.77734 12.4023 8.61328 12.4023C8.53125 12.4023 8.42188 12.3477 8.36719 12.293L6.53516 10.9258C6.26172 10.7344 6.125 10.4336 6.125 10.0781V5.8125C6.125 5.59375 6.31641 5.375 6.5625 5.375H7.4375C7.65625 5.375 7.875 5.59375 7.875 5.8125V9.75L9.46094 10.9258C9.54297 11.0078 9.625 11.1172 9.625 11.2539C9.625 11.3633 9.57031 11.4727 9.51562 11.5273Z" fill="#A5A5A5"/>
</svg>